# Blender v2.77 (sub 0) OBJ File: ''
# www.blender.org
mtllib block.mtl
o Cube
v 4.572936 -0.971116 -0.795098
v 4.572936 -0.971116 9.389959
v -1.106227 -0.971116 9.389959
v -1.106227 -0.971116 -0.795098
v 4.572937 6.616342 -0.795098
v 4.572936 6.616342 9.389960
v -1.106228 6.616342 9.389959
v -1.106227 6.616342 -0.795098
vn 0.000000 -1.000000 -0.000000
vn 0.000000 1.000000 0.000000
vn 1.000000 0.000000 0.000000
vn 0.000000 -0.000000 1.000000
vn -1.000000 -0.000000 -0.000000
vn 0.000000 0.000000 -1.000000
usemtl Material
s off
f 1//1 2//1 3//1 4//1
f 5//2 8//2 7//2 6//2
f 1//3 5//3 6//3 2//3
f 2//4 6//4 7//4 3//4
f 3//5 7//5 8//5 4//5
f 5//6 1//6 4//6 8//6
