# Blender v2.78 (sub 0) OBJ File: 'cube_new.blend'
# www.blender.org
mtllib cube.mtl
o Cube
v 8.939234 -9.082361 -29.794725
v 8.939234 -9.082361 10.205274
v -11.060767 -9.082361 10.205272
v -11.060762 -9.082361 -29.794729
v 8.939239 10.917639 -29.794722
v 8.939227 10.917639 10.205279
v -11.060770 10.917639 10.205270
v -11.060765 10.917639 -29.794725
vt 1.2187 -4.5000
vt 1.2188 0.5000
vt -0.6562 0.5000
vt -0.6562 -4.5000
vt -0.6562 0.5000
vt -2.5312 0.5000
vt -2.5312 -4.5000
vt -0.6563 -4.5000
vt -0.6563 5.5000
vt -2.5312 5.5000
vt -2.5312 0.5000
vt -0.6563 0.5000
vt -0.6562 3.0000
vt -0.6562 0.5000
vt 1.2187 0.5000
vt 1.2188 3.0000
vt 3.0938 0.5000
vt 1.2188 0.5000
vt 1.2188 -4.5000
vt 3.0937 -4.5000
vt 1.2188 0.5000
vt 3.0937 0.5000
vt 3.0937 3.0000
vt 1.2188 3.0000
vn 0.0000 -1.0000 0.0000
vn 0.0000 1.0000 0.0000
vn 1.0000 0.0000 0.0000
vn -0.0000 -0.0000 1.0000
vn -1.0000 -0.0000 -0.0000
vn 0.0000 0.0000 -1.0000
usemtl Material
s off
f 1/1/1 2/2/1 3/3/1 4/4/1
f 5/5/2 8/6/2 7/7/2 6/8/2
f 1/9/3 5/10/3 6/11/3 2/12/3
f 2/13/4 6/14/4 7/15/4 3/16/4
f 3/17/5 7/18/5 8/19/5 4/20/5
f 5/21/6 1/22/6 4/23/6 8/24/6
